<?xml version="1.0" encoding="utf-8"?>
<!-- Generator: Adobe Illustrator 21.0.2, SVG Export Plug-In . SVG Version: 6.00 Build 0)  -->
<svg version="1.1" id="Layer_1" xmlns="http://www.w3.org/2000/svg" xmlns:xlink="http://www.w3.org/1999/xlink" x="0px" y="0px"
	 viewBox="0 0 1920 1080" style="enable-background:new 0 0 1920 1080;" xml:space="preserve">
	<defs>
		<linearGradient id="grad" gradientTransform="rotate(45)">
            <stop offset="10%"  stop-color="#15ff99"/>
            <stop offset="100%" stop-color="#e66465"/>
			
        </linearGradient>
	</defs>
<style type="text/css">
	

	<!-- #fondo{
		 	fill: url(#MyGradient);
			fill: purple;
		 } -->
	.st0{
		clip-path:url(#clip_1_);
		fill:url(#grad);
		stroke:#000000;
		stroke-miterlimit:10;
		}
</style>
<g id="clipping">
	<defs>
		<path id="clip" d="M801.9,541.2c-15.6,0-69.4-4.8-139.4-4.8c-56.4,0-124.4,4.8-140.1,4.8c-4.1,0-5.4-2-5.4-14.3
			c0-12.2,1.4-14.3,5.4-15l43.5-4.8c6.8-0.7,8.2-2.7,8.2-9.5v-414c0-6.8-1.4-8.2-8.2-8.2h-2.7c-10.2,0-37.4,2.7-64.6,8.8
			c-13.6,2.7-16.3,5.4-23.8,17.7c-23.1,40.1-36.7,63.2-66,112.9c-3.4,5.4-4.1,6.8-9.5,6.8c-10.9,0-28.6-6.8-28.6-12.2
			c0-32,29.9-148.2,43.5-198.5C416.4,4.1,430,0,438.8,0c4.1,0,5.4,2,7.5,5.4c6.8,10.9,13.6,21.8,20.4,31.3c4.1,5.4,4.8,6.1,10.2,6.8
			c39.4,2.7,56.4,3.4,86.4,3.4h197.9c57.1,0,85.7-0.7,125.1-3.4c5.4-0.7,6.1-1.4,10.2-6.8c6.8-9.5,13.6-20.4,20.4-31.3
			c2-3.4,3.4-5.4,7.5-5.4c8.8,0,24.5,4.1,24.5,10.9c0,50.3-3.4,144.8-10.9,204c-0.7,5.4-2.7,6.8-18.4,6.8c-15.6,0-17.7-1.4-19.7-6.8
			c-18.4-53-23.1-72.8-40.1-112.9c-5.4-12.9-10.2-15-23.8-17.7c-27.2-6.1-64.6-8.8-74.8-8.8h-2.7c-6.8,0-8.2,1.4-8.2,8.2v414.1
			c0,6.8,1.4,8.8,8.2,9.5l43.5,4.8c4.1,0.7,5.4,2.7,5.4,15C807.4,539.2,806,541.2,801.9,541.2z M1255.4,38.8
			c150.9,0,261.8,92.5,261.8,250.2c0,159.8-111.5,258.4-286.9,258.4c-150.3,0-261.1-93.2-261.1-249.5
			C969.2,138,1080.7,38.8,1255.4,38.8z M1243.9,497c13.6,13.6,27.9,17.7,40.1,17.7c34,0,50.3-23.8,50.3-95.2
			c0-133.3-44.2-282.9-91.8-330.5c-13.6-13.6-27.9-17.7-40.1-17.7c-34,0-50.3,23.8-50.3,95.9C1152.1,299.9,1196.3,449.5,1243.9,497z
			 M687.7,1073.9c-40.1,0-86.4-4.8-134-4.8h-10.2c-90.4,0-129.9,4.8-145.5,4.8c-4.1,0-5.4-2-5.4-14.3c0-12.2,1.4-14.3,5.4-15
			l29.9-4.8c6.8-1.4,8.2-2.7,8.2-9.5v-412c0-6.8-1.4-8.2-8.2-9.5L398,604c-4.1-0.7-5.4-2.7-5.4-15s1.4-14.3,5.4-14.3
			c15.6,0,79.6,4.8,142.8,4.8h14.3c27.2,0,104.7-4.8,132.6-4.8c172.7,0,272.7,107.4,272.7,248.9
			C960.3,991.6,821.6,1073.9,687.7,1073.9z M770,875.3c0-106.8-25.8-184.9-73.4-232.5c-27.2-27.2-48.3-34.7-73.4-34.7h-2.7
			c-6.8,0-8.2,1.4-8.2,8.2v381.5c0,19,2.7,24.5,10.2,32c6.8,6.8,16.3,10.9,27.2,10.9C729.2,1040.6,770,961.7,770,875.3z
			 M1287.4,571.4c151,0,261.8,92.5,261.8,250.2c0,159.8-111.5,258.4-286.9,258.4c-150.3,0-261.1-93.2-261.1-249.5
			C1001.1,670.7,1112.6,571.4,1287.4,571.4z M1275.8,1029.7c13.6,13.6,27.9,17.7,40.1,17.7c34,0,50.3-23.8,50.3-95.2
			c0-133.3-44.2-282.9-91.8-330.5c-13.6-13.6-27.9-17.7-40.1-17.7c-34,0-50.3,23.8-50.3,95.9C1184,832.5,1228.2,982.1,1275.8,1029.7
			z"/>
	</defs>
	<clipPath id="clip_1_">
		<use xlink:href="#clip"  style="overflow:visible;"/>
	</clipPath>
	<rect id="fondo" class="st0" width="1920" height="1080"/>
</g>
</svg>
